<?xml version="1.0" standalone="no"?>
<!DOCTYPE svg PUBLIC "-//W3C//DTD SVG 20010904//EN"
 "http://www.w3.org/TR/2001/REC-SVG-20010904/DTD/svg10.dtd">
<svg version="1.0" xmlns="http://www.w3.org/2000/svg"
 width="512.000000pt" height="512.000000pt" viewBox="0 0 512.000000 512.000000"
 preserveAspectRatio="xMidYMid meet">
<metadata>
Created by potrace 1.14, written by Peter Selinger 2001-2017
</metadata>
<g transform="translate(0.000000,512.000000) scale(0.100000,-0.100000)"
fill="#000000" stroke="none">
<path d="M2080 4920 l0 -40 -160 0 -160 0 0 -40 0 -40 -80 0 -80 0 0 -40 0
-40 -80 0 -80 0 0 -40 0 -40 -80 0 -80 0 0 -40 0 -40 -40 0 -40 0 0 -40 0 -40
-80 0 -80 0 0 -40 0 -40 -40 0 -40 0 0 -40 0 -40 -40 0 -40 0 0 -40 0 -40 -40
0 -40 0 0 -40 0 -40 -40 0 -40 0 0 -40 0 -40 -40 0 -40 0 0 -80 0 -80 -40 0
-40 0 0 -40 0 -40 -40 0 -40 0 0 -80 0 -80 -40 0 -40 0 0 -80 0 -80 -40 0 -40
0 0 -80 0 -80 -40 0 -40 0 0 -160 0 -160 -40 0 -40 0 0 -480 0 -480 40 0 40 0
0 -160 0 -160 40 0 40 0 0 -80 0 -80 40 0 40 0 0 -80 0 -80 40 0 40 0 0 -80 0
-80 40 0 40 0 0 -40 0 -40 40 0 40 0 0 -80 0 -80 40 0 40 0 0 -40 0 -40 40 0
40 0 0 -40 0 -40 40 0 40 0 0 -40 0 -40 40 0 40 0 0 -40 0 -40 40 0 40 0 0
-40 0 -40 80 0 80 0 0 -40 0 -40 40 0 40 0 0 -40 0 -40 80 0 80 0 0 -40 0 -40
80 0 80 0 0 -40 0 -40 80 0 80 0 0 -40 0 -40 160 0 160 0 0 -40 0 -40 480 0
480 0 0 40 0 40 160 0 160 0 0 40 0 40 80 0 80 0 0 40 0 40 80 0 80 0 0 40 0
40 80 0 80 0 0 40 0 40 40 0 40 0 0 40 0 40 80 0 80 0 0 40 0 40 40 0 40 0 0
40 0 40 40 0 40 0 0 40 0 40 40 0 40 0 0 40 0 40 40 0 40 0 0 40 0 40 40 0 40
0 0 80 0 80 40 0 40 0 0 40 0 40 40 0 40 0 0 80 0 80 40 0 40 0 0 80 0 80 40
0 40 0 0 80 0 80 40 0 40 0 0 160 0 160 40 0 40 0 0 480 0 480 -40 0 -40 0 0
160 0 160 -40 0 -40 0 0 80 0 80 -40 0 -40 0 0 80 0 80 -40 0 -40 0 0 80 0 80
-40 0 -40 0 0 40 0 40 -40 0 -40 0 0 80 0 80 -40 0 -40 0 0 40 0 40 -40 0 -40
0 0 40 0 40 -40 0 -40 0 0 40 0 40 -40 0 -40 0 0 40 0 40 -40 0 -40 0 0 40 0
40 -80 0 -80 0 0 40 0 40 -40 0 -40 0 0 40 0 40 -80 0 -80 0 0 40 0 40 -80 0
-80 0 0 40 0 40 -80 0 -80 0 0 40 0 40 -160 0 -160 0 0 40 0 40 -480 0 -480 0
0 -40z m480 -600 l0 -480 -40 0 -40 0 0 -200 0 -200 -40 0 -40 0 0 -400 0
-400 -320 0 -320 0 0 40 0 40 -120 0 -120 0 0 40 0 40 -80 0 -80 0 0 80 0 80
-40 0 -40 0 0 200 0 200 -40 0 -40 0 0 240 0 240 -40 0 -40 0 0 120 0 120 -40
0 -40 0 0 80 0 80 40 0 40 0 0 40 0 40 80 0 80 0 0 40 0 40 40 0 40 0 0 40 0
40 80 0 80 0 0 40 0 40 80 0 80 0 0 40 0 40 80 0 80 0 0 40 0 40 160 0 160 0
0 40 0 40 200 0 200 0 0 -480z m400 440 l0 -40 160 0 160 0 0 -40 0 -40 80 0
80 0 0 -40 0 -40 80 0 80 0 0 -40 0 -40 80 0 80 0 0 -40 0 -40 40 0 40 0 0
-40 0 -40 40 0 40 0 0 -40 0 -40 -80 0 -80 0 0 -40 0 -40 -40 0 -40 0 0 -80 0
-80 -40 0 -40 0 0 -40 0 -40 -40 0 -40 0 0 -80 0 -80 -40 0 -40 0 0 -160 0
-160 -40 0 -40 0 0 -80 0 -80 -40 0 -40 0 0 -120 0 -120 -40 0 -40 0 0 -200 0
-200 -320 0 -320 0 0 360 0 360 40 0 40 0 0 200 0 200 40 0 40 0 0 440 0 440
40 0 40 0 0 80 0 80 80 0 80 0 0 -40z m1200 -640 l0 -40 40 0 40 0 0 -40 0
-40 40 0 40 0 0 -80 0 -80 40 0 40 0 0 -40 0 -40 40 0 40 0 0 -80 0 -80 40 0
40 0 0 -80 0 -80 40 0 40 0 0 -80 0 -80 40 0 40 0 0 -40 0 -40 -40 0 -40 0 0
-40 0 -40 -40 0 -40 0 0 -40 0 -40 -80 0 -80 0 0 -40 0 -40 -80 0 -80 0 0 -40
0 -40 -120 0 -120 0 0 -40 0 -40 -200 0 -200 0 0 -40 0 -40 -120 0 -120 0 0
120 0 120 40 0 40 0 0 120 0 120 40 0 40 0 0 40 0 40 40 0 40 0 0 200 0 200
40 0 40 0 0 40 0 40 40 0 40 0 0 80 0 80 40 0 40 0 0 40 0 40 40 0 40 0 0 40
0 40 40 0 40 0 0 40 0 40 80 0 80 0 0 -40z m-3280 -160 l0 -40 40 0 40 0 0
-120 0 -120 40 0 40 0 0 -200 0 -200 40 0 40 0 0 -240 0 -240 -40 0 -40 0 0
40 0 40 -80 0 -80 0 0 40 0 40 -200 0 -200 0 0 40 0 40 -40 0 -40 0 0 120 0
120 40 0 40 0 0 80 0 80 40 0 40 0 0 80 0 80 40 0 40 0 0 80 0 80 40 0 40 0 0
40 0 40 40 0 40 0 0 80 0 80 40 0 40 0 0 -40z m3920 -1400 l0 -400 -40 0 -40
0 0 -160 0 -160 -40 0 -40 0 0 -80 0 -80 -40 0 -40 0 0 -80 0 -80 -40 0 -40 0
0 -80 0 -80 -40 0 -40 0 0 -40 0 -40 -40 0 -40 0 0 -40 0 -40 -80 0 -80 0 0
80 0 80 -40 0 -40 0 0 40 0 40 -80 0 -80 0 0 40 0 40 -40 0 -40 0 0 40 0 40
-40 0 -40 0 0 40 0 40 -40 0 -40 0 0 40 0 40 -40 0 -40 0 0 40 0 40 -40 0 -40
0 0 200 0 200 -40 0 -40 0 0 160 0 160 120 0 120 0 0 40 0 40 200 0 200 0 0
40 0 40 120 0 120 0 0 40 0 40 80 0 80 0 0 40 0 40 80 0 80 0 0 40 0 40 80 0
80 0 0 -400z m-4400 280 l0 -40 200 0 200 0 0 -40 0 -40 80 0 80 0 0 -40 0
-40 80 0 80 0 0 -360 0 -360 -40 0 -40 0 0 -120 0 -120 -40 0 -40 0 0 -160 0
-160 -40 0 -40 0 0 -80 0 -80 -40 0 -40 0 0 40 0 40 -40 0 -40 0 0 40 0 40
-40 0 -40 0 0 80 0 80 -40 0 -40 0 0 80 0 80 -40 0 -40 0 0 80 0 80 -40 0 -40
0 0 160 0 160 -40 0 -40 0 0 360 0 360 40 0 40 0 0 -40z m1040 -240 l0 -40
120 0 120 0 0 -40 0 -40 360 0 360 0 0 -120 0 -120 -40 0 -40 0 0 -120 0 -120
-40 0 -40 0 0 -280 0 -280 40 0 40 0 0 -440 0 -440 -40 0 -40 0 0 -120 0 -120
-40 0 -40 0 0 40 0 40 -160 0 -160 0 0 40 0 40 -80 0 -80 0 0 40 0 40 -80 0
-80 0 0 40 0 40 -80 0 -80 0 0 40 0 40 -40 0 -40 0 0 40 0 40 -80 0 -80 0 0
40 0 40 -40 0 -40 0 0 40 0 40 -40 0 -40 0 0 40 0 40 40 0 40 0 0 80 0 80 40
0 40 0 0 160 0 160 40 0 40 0 0 120 0 120 40 0 40 0 0 200 0 200 40 0 40 0 0
120 0 120 -40 0 -40 0 0 120 0 120 80 0 80 0 0 -40z m1840 -280 l0 -160 40 0
40 0 0 -200 0 -200 40 0 40 0 0 -80 0 -80 80 0 80 0 0 -40 0 -40 40 0 40 0 0
-40 0 -40 40 0 40 0 0 -40 0 -40 40 0 40 0 0 -40 0 -40 40 0 40 0 0 -40 0 -40
40 0 40 0 0 -40 0 -40 40 0 40 0 0 -40 0 -40 40 0 40 0 0 -40 0 -40 -40 0 -40
0 0 -40 0 -40 -40 0 -40 0 0 -40 0 -40 -80 0 -80 0 0 -40 0 -40 -40 0 -40 0 0
-40 0 -40 -80 0 -80 0 0 -40 0 -40 -80 0 -80 0 0 -40 0 -40 -80 0 -80 0 0 -40
0 -40 -160 0 -160 0 0 -40 0 -40 -280 0 -280 0 0 80 0 80 40 0 40 0 0 520 0
520 -40 0 -40 0 0 200 0 200 40 0 40 0 0 120 0 120 40 0 40 0 0 160 0 160 360
0 360 0 0 -160z"/>
</g>
</svg>
